# xmcd
#
# Track frame offsets:
#	182
#	16172
#	28737
#	46850
#	62452
#	74630
#	84900
#	94270
#	106967
#	125935
#	141182
#	151695
#	167512
#	178737
#	189735
#	201855
#	214397
#	224982
#	237732
#	253492
#
# Disc length: 3504 seconds
#
# Revision: 2
# Processed by: cddbd v1.5.2PL0 Copyright (c) Steve Scherf et al.
# Submitted via: VUPlayer 2.49
#
DISCID=360dae14
DTITLE=Jack Jersey - Greatest Hits
DYEAR=2003
DGENRE=Oldies
TTITLE0=Puerto de Liansa
TTITLE1=Lonely Me
TTITLE2=Sri Lanka
TTITLE3=Blue Brown Eyed Lady
TTITLE4=She Was Dynamite
TTITLE5=Silvery Moon
TTITLE6=Rub it in
TTITLE7=On This Night
TTITLE8=Shanah
TTITLE9=Papa Was A Poor Man
TTITLE10=In the Still of the Night
TTITLE11=I'm Calling
TTITLE12=I Wonder
TTITLE13=Woman
TTITLE14=Gone Girl
TTITLE15=Me and Bobby MacGee
TTITLE16=Don't Break this Heart
TTITLE17=Mary- Lee
TTITLE18=Trincomalee
TTITLE19=This Means Goodbye
EXTD=
EXTT0=
EXTT1=
EXTT2=
EXTT3=
EXTT4=
EXTT5=
EXTT6=
EXTT7=
EXTT8=
EXTT9=
EXTT10=
EXTT11=
EXTT12=
EXTT13=
EXTT14=
EXTT15=
EXTT16=
EXTT17=
EXTT18=
EXTT19=
PLAYORDER=
